<svg width="244" height="97" viewBox="0 0 244 97" fill="none" xmlns="http://www.w3.org/2000/svg">
<path d="M5.62403 83.42C4.08695 91.9133 11.0607 97.9438 18.5672 96.4766L20.5694 95.9853L22.0737 94.9918L55.2174 62.1362L57.2326 58.6449C58.4591 55.4213 58.1964 53.4167 56.7719 49.6428C43.2594 35.6232 36.0414 27.9089 21.9249 14.4905C11.9447 9.94687 3.40553 18.9097 6.36405 28.4227L7.35531 30.427L23.7831 46.9989C28.2569 53.0184 28.2967 56.0395 24.2155 62.5009L10.1545 76.4397C7.18715 79.3906 6.10341 81.0021 5.62403 83.42Z" fill="#1C8799"/>
<path d="M0.105391 66.2247C-0.512658 69.6398 2.29145 72.0647 5.30977 71.4747L6.11484 71.2771L6.71973 70.8777L20.0466 57.6666L20.857 56.2628C21.3501 54.9666 21.2445 54.1605 20.6717 52.6431C15.2384 47.0059 12.3361 43.904 6.65991 38.5085C2.64689 36.6815 -0.786657 40.2854 0.402949 44.1106L0.80153 44.9165L7.40707 51.58C9.20594 54.0004 9.22197 55.2152 7.58092 57.8132L1.92708 63.418C0.733915 64.6045 0.298151 65.2525 0.105391 66.2247Z" fill="#1C8799"/>
<path d="M31.5018 41.4961C32.3952 39.5739 32.8966 38.4951 35 36.5L53 64.5L49.5 68C35.824 55.1375 32.856 51.9232 31.5 49C30.8068 46.3589 30.7153 44.7548 31.5 41.5L31.5018 41.4961Z" fill="#006980"/>
<path d="M86.2659 13.2303C87.7659 4.73028 80.7659 -1.26972 73.2659 0.230264L71.2659 0.730285L69.7659 1.73029L36.7659 34.7303L34.7659 38.2303C33.5535 41.4592 33.8249 43.4627 35.2659 47.2303C48.8395 61.1908 56.0911 68.8736 70.2659 82.2303C80.2659 86.7303 88.7659 77.7303 85.7659 68.2303L84.7659 66.2303L68.2659 49.7303C63.7659 43.7303 63.7129 40.7094 67.7659 34.2303L81.7659 20.2303C84.7204 17.2665 85.7971 15.6502 86.2659 13.2303Z" fill="#FDFDFD"/>
<path d="M93.9221 31.043C94.4938 27.803 91.8257 25.516 88.9669 26.0878L88.2046 26.2784L87.6328 26.6595L75.0543 39.2381L74.2919 40.5722C73.8298 41.8029 73.9333 42.5666 74.4825 44.0027C79.6563 49.324 82.4204 52.2524 87.8234 57.3435C91.6351 59.0588 94.875 55.6283 93.7315 52.0072L93.3503 51.2448L87.0611 44.9556C85.3458 42.6686 85.3256 41.5171 86.8705 39.0475L92.2068 33.7111C93.333 32.5814 93.7434 31.9654 93.9221 31.043Z" fill="#FDFDFD" stroke="#FDFDFD" stroke-width="0.11435"/>
<circle cx="242.8" cy="89" r="1" fill="#1C8799"/>
<circle cx="114.8" cy="43" r="5" fill="#1C8799"/>
<circle cx="153" cy="87" r="5" fill="#1C8799"/>
<circle cx="197" cy="87" r="5" fill="#1C8799"/>
<circle cx="214.8" cy="89" r="1" fill="#1C8799"/>
<circle cx="222.8" cy="86" r="1" fill="#1C8799"/>
<path d="M231.8 90H229.8V81H231.8V82.5C234.127 80.7285 235.234 80.6594 236.8 82.5H237.8L239.8 81H241.8C242.996 81.7828 243.464 82.4142 243.8 84V87H241.8V84C240.423 82.6746 239.558 82.6662 237.8 84V90H235.8V84C234.469 82.6922 233.587 82.7231 231.8 84V90Z" fill="#1C8799" stroke="#1C8799" stroke-width="0.4"/>
<path d="M213.799 90.8991C212.957 91.0708 212.085 91.0227 211.268 90.7595C210.45 90.4962 209.714 90.0267 209.13 89.3962C208.547 88.7656 208.135 87.9954 207.936 87.1597C207.737 86.324 207.756 85.4511 207.992 84.6251C208.229 83.7991 208.674 83.048 209.285 82.444C209.896 81.8401 210.652 81.4037 211.481 81.1771C212.309 80.9505 213.182 80.9412 214.016 81.1501C214.849 81.3591 215.615 81.7792 216.238 82.3701L214.658 84.038C214.321 83.7187 213.907 83.4916 213.457 83.3787C213.007 83.2657 212.535 83.2707 212.087 83.3932C211.639 83.5157 211.23 83.7516 210.9 84.078C210.57 84.4044 210.329 84.8104 210.201 85.2569C210.074 85.7033 210.063 86.1751 210.171 86.6268C210.279 87.0785 210.501 87.4948 210.816 87.8356C211.132 88.1764 211.53 88.4302 211.972 88.5725C212.414 88.7148 212.885 88.7408 213.34 88.648L213.799 90.8991Z" fill="#1C8799"/>
<path d="M227.8 86C227.8 88.7614 225.561 91 222.8 91C220.038 91 217.8 88.7614 217.8 86C217.8 83.2386 220.038 81 222.8 81C225.561 81 227.8 83.2386 227.8 86ZM220.1 86C220.1 87.4912 221.308 88.7001 222.8 88.7001C224.291 88.7001 225.5 87.4912 225.5 86C225.5 84.5088 224.291 83.2999 222.8 83.2999C221.308 83.2999 220.1 84.5088 220.1 86Z" fill="#1C8799"/>
<path d="M187 55.5C187 66.2696 179.165 75 169.5 75C159.835 75 152 66.2696 152 55.5C152 44.7304 159.835 36 169.5 36C179.165 36 187 44.7304 187 55.5ZM158.937 55.5C158.937 62.0005 163.666 67.2702 169.5 67.2702C175.334 67.2702 180.063 62.0005 180.063 55.5C180.063 48.9995 175.334 43.7298 169.5 43.7298C163.666 43.7298 158.937 48.9995 158.937 55.5Z" fill="white"/>
<path d="M156.5 38V42.4483L157 81C153.697 79.1763 151.746 79.0129 148 81V38H156.5Z" fill="white" stroke="white" stroke-width="0.4"/>
<path d="M231 55.5C231 66.2696 223.165 75 213.5 75C203.835 75 196 66.2696 196 55.5C196 44.7304 203.835 36 213.5 36C223.165 36 231 44.7304 231 55.5ZM202.937 55.5C202.937 62.0005 207.666 67.2702 213.5 67.2702C219.334 67.2702 224.063 62.0005 224.063 55.5C224.063 48.9995 219.334 43.7298 213.5 43.7298C207.666 43.7298 202.937 48.9995 202.937 55.5Z" fill="white"/>
<path d="M200.5 38V42.4483L201 81C197.697 79.1763 195.746 79.0129 192 81V38H200.5Z" fill="white" stroke="white" stroke-width="0.4"/>
<path fill-rule="evenodd" clip-rule="evenodd" d="M141.5 54.7223C141.5 61.6259 134.493 72.1273 126.752 73.2222C119.01 74.3172 109.992 70.4333 110 62.7222C110.008 54.2223 119.02 49.7222 126.752 49.7222C134.483 49.7222 141.5 47.8188 141.5 54.7223ZM125 65.7222C117 64.7222 120 56.2222 128 55.7222C134.684 55.3045 135.434 55.2358 135.501 55.2245L135.567 55.5355C135.567 55.5355 135.312 55.5355 135.501 55.2245C135.729 56.1928 136 58.2238 135.5 60.2222C135 62.2222 132 64.7222 131 65.2222C130 65.7222 127 65.7222 125.5 65.7222H125Z" fill="#FFFEFF"/>
<rect x="136" y="47.2222" width="8" height="25" fill="#FFFEFF"/>
<path d="M122 36.7463C122 36.7463 126 39.2463 124 43.2978C126.387 42.865 128.191 42.9632 130.5 43.2978C132.466 44.0805 133.984 44.0189 135.5 46.3909L136 47.9425H140.5L144 47.9425C142 31.6811 122 36.7463 122 36.7463Z" fill="white"/>
</svg>
